<svg xmlns="http://www.w3.org/2000/svg" width="1376" height="443" viewBox="0 0 1376 443">
<g>
<path d="M 0.00 0.00 L 1376.00 0.00 L 1376.00 443.00 L 0.00 443.00 ZM 209.00 336.35 C209.00,336.71 224.65,337.00 243.79,337.00 L 278.58 337.00 L 282.54 332.29 C286.45,327.65 297.02,314.47 367.29,226.71 C386.98,202.12 403.29,182.00 403.54,182.00 C403.79,182.00 404.00,204.27 404.00,231.50 L 404.00 281.00 L 377.75 281.01 C363.31,281.02 349.79,281.30 347.71,281.65 C344.22,282.23 342.67,283.82 328.21,301.76 C307.87,326.99 301.00,335.74 301.00,336.43 C301.00,336.75 322.50,337.00 348.78,337.00 L 396.56 337.00 L 402.03 330.17 C428.78,296.76 436.88,286.64 446.70,274.36 L 458.00 260.22 L 458.00 172.61 C458.00,121.85 457.62,85.00 457.11,85.00 C456.08,85.00 445.02,86.17 386.74,92.46 C363.77,94.94 337.67,97.64 328.74,98.47 C319.81,99.29 310.61,100.22 308.30,100.53 C304.18,101.10 303.71,101.61 279.85,131.30 C266.50,147.91 244.65,175.10 231.29,191.72 C217.93,208.35 207.00,222.41 207.00,222.97 C207.00,223.66 218.53,224.00 241.41,224.00 L 275.82 224.00 L 286.66 210.41 C292.62,202.93 302.00,191.27 307.50,184.49 C313.00,177.72 324.02,164.06 332.00,154.15 C339.98,144.24 346.95,136.10 347.50,136.07 C348.05,136.04 351.34,138.54 354.81,141.64 L 361.13 147.27 L 358.22 150.39 C356.63,152.10 345.59,165.65 333.69,180.50 C321.80,195.35 302.27,219.68 290.28,234.56 C230.58,308.73 209.00,335.75 209.00,336.35 ZM 550.00 145.00 L 550.00 283.15 L 582.25 282.78 C614.20,282.42 614.58,282.39 622.63,279.70 C636.86,274.95 650.74,264.13 657.59,252.44 C658.95,250.12 661.46,244.46 663.17,239.86 C665.97,232.36 666.33,230.06 666.76,217.44 C667.17,205.40 666.94,202.18 665.13,194.94 C660.17,175.15 648.71,160.34 632.00,152.14 C618.89,145.70 614.02,145.04 579.75,145.02 ZM 1108.50 284.03 C1114.88,285.44 1129.75,284.39 1136.42,282.06 C1172.43,269.47 1182.76,222.67 1155.52,195.49 C1145.28,185.27 1134.52,181.00 1119.00,181.00 C1103.34,181.00 1090.58,186.11 1080.50,196.41 C1070.82,206.31 1066.03,218.18 1066.01,232.36 C1065.97,258.15 1082.52,278.27 1108.50,284.03 ZM 900.00 183.00 L 900.00 283.00 L 919.90 283.00 L 920.20 249.25 C920.49,216.59 920.57,215.37 922.72,211.35 C927.36,202.66 936.21,198.23 946.72,199.31 C955.50,200.22 960.85,205.43 962.92,215.09 C963.56,218.06 964.00,232.89 964.00,251.55 L 964.00 283.00 L 983.90 283.00 L 984.20 249.25 C984.49,216.73 984.58,215.35 986.69,211.41 C991.43,202.54 999.38,198.43 1010.22,199.21 C1016.98,199.70 1022.08,203.17 1025.43,209.55 C1027.39,213.29 1027.52,215.37 1027.81,248.25 L 1028.12 283.00 L 1048.11 283.00 L 1047.80 245.75 C1047.49,209.69 1047.41,208.32 1045.21,202.85 C1041.77,194.32 1037.10,188.87 1029.85,184.94 C1023.66,181.59 1023.21,181.50 1011.98,181.50 C1001.03,181.50 1000.13,181.66 993.98,184.70 C990.42,186.46 985.46,189.92 982.96,192.40 L 978.42 196.89 L 974.96 192.29 C972.97,189.63 969.17,186.37 966.00,184.59 C960.74,181.63 960.00,181.50 949.00,181.50 C938.27,181.50 937.13,181.69 932.00,184.38 C928.97,185.97 924.92,188.64 923.00,190.33 L 919.50 193.39 L 918.90 183.00 ZM 608.92 262.89 C605.30,263.50 595.51,264.00 587.17,264.00 L 572.00 264.00 L 571.96 255.75 C571.94,251.21 571.68,229.79 571.38,208.14 C571.08,186.49 571.11,167.70 571.44,166.39 L 572.04 164.00 L 590.41 164.00 C605.90,164.00 609.79,164.31 615.14,165.98 C633.96,171.82 644.67,187.58 645.73,211.00 C646.52,228.32 642.61,240.24 632.72,250.70 C626.74,257.03 618.43,261.29 608.92,262.89 ZM 688.41 322.06 C693.72,323.33 703.43,323.06 708.67,321.51 C715.50,319.48 721.82,314.37 725.88,307.60 C729.57,301.46 730.95,298.15 768.29,206.25 L 777.74 183.00 L 756.15 183.00 L 750.43 197.75 C735.92,235.14 728.08,254.50 727.46,254.50 C726.86,254.50 709.53,211.97 701.48,190.75 L 698.54 183.00 L 687.77 183.00 C681.85,183.00 677.00,183.25 677.00,183.55 C677.00,183.85 679.87,190.94 683.37,199.30 C686.87,207.66 695.87,229.44 703.37,247.71 L 717.00 280.92 L 713.57 288.69 C711.69,292.96 709.10,297.75 707.82,299.32 C704.77,303.09 696.90,305.17 688.89,304.33 L 683.00 303.72 L 683.00 311.80 C683.00,320.39 683.22,320.82 688.41,322.06 ZM 791.00 183.00 L 791.00 283.00 L 800.89 283.00 C808.99,283.00 810.90,282.71 811.39,281.42 C811.73,280.55 812.01,265.81 812.02,248.67 C812.04,219.46 812.17,217.22 814.08,213.00 C817.84,204.71 824.12,200.25 833.38,199.30 C843.83,198.23 851.03,202.18 855.12,211.23 C857.45,216.39 857.51,217.19 857.81,249.75 L 858.12 283.00 L 878.00 283.00 L 878.00 248.71 C878.00,211.19 877.54,207.20 872.10,197.50 C870.55,194.75 866.97,190.60 864.14,188.28 C857.13,182.53 850.35,180.65 838.61,181.20 C828.39,181.67 823.44,183.44 815.74,189.35 C813.12,191.36 810.76,193.00 810.49,193.00 C810.22,193.00 810.00,190.75 810.00,188.00 L 810.00 183.00 ZM 1132.50 263.28 C1126.54,266.38 1113.27,266.71 1106.26,263.94 C1092.73,258.59 1084.07,241.88 1086.90,226.58 C1088.42,218.35 1093.57,209.27 1098.81,205.56 C1115.83,193.51 1137.79,198.66 1146.70,216.80 C1149.20,221.89 1149.50,223.57 1149.50,232.50 C1149.50,241.47 1149.21,243.10 1146.65,248.29 C1143.42,254.87 1138.35,260.24 1132.50,263.28 Z" fill="#ffffff"/>
<path d="M 209.00 336.35 C209.00,335.75 230.58,308.73 290.28,234.56 C302.27,219.68 321.80,195.35 333.69,180.50 C345.59,165.65 356.63,152.10 358.22,150.39 L 361.13 147.27 L 354.81 141.64 C351.81,138.96 348.94,136.72 347.87,136.19 C348.78,136.58 353.16,139.95 357.62,143.69 C362.09,147.43 372.64,155.90 381.06,162.50 C389.48,169.10 397.75,175.72 399.43,177.22 C401.12,178.72 402.95,179.95 403.50,179.95 C404.05,179.96 406.01,177.16 407.85,173.73 C412.57,164.94 454.88,89.86 456.28,87.80 C456.91,86.86 457.18,85.85 456.88,85.54 C456.60,85.26 451.17,85.59 444.42,86.26 C453.78,85.27 456.61,85.00 457.11,85.00 C457.62,85.00 458.00,121.85 458.00,172.61 L 458.00 260.22 L 446.70 274.36 C436.88,286.64 428.78,296.76 402.03,330.17 L 396.56 337.00 L 348.78 337.00 C322.50,337.00 301.00,336.75 301.00,336.43 C301.00,335.74 307.87,326.99 328.21,301.76 C342.67,283.82 344.22,282.23 347.71,281.65 C349.79,281.30 363.31,281.02 377.75,281.01 L 404.00 281.00 L 404.00 231.50 C404.00,204.27 403.79,182.00 403.54,182.00 C403.29,182.00 386.98,202.12 367.29,226.71 C297.02,314.47 286.45,327.65 282.54,332.29 L 278.58 337.00 L 243.79 337.00 C224.65,337.00 209.00,336.71 209.00,336.35 ZM 351.68 96.17 C340.08,97.40 331.49,98.29 329.25,98.51 C325.26,98.89 321.81,99.50 321.58,99.86 C320.98,100.84 345.64,134.95 347.82,136.17 C347.68,136.10 347.57,136.06 347.50,136.07 C346.95,136.10 339.98,144.24 332.00,154.15 C324.02,164.06 313.00,177.72 307.50,184.49 C302.00,191.27 292.62,202.93 286.66,210.41 L 275.82 224.00 L 241.41 224.00 C218.53,224.00 207.00,223.66 207.00,222.97 C207.00,222.41 217.93,208.35 231.29,191.72 C244.65,175.10 266.50,147.91 279.85,131.30 C303.71,101.61 304.18,101.10 308.30,100.53 C310.61,100.22 319.81,99.29 328.74,98.47 C333.09,98.07 341.52,97.22 351.68,96.17 Z" fill="#5de6ff"/>
<path d="M 444.42 86.26 L 444.42 86.26 C451.17,85.59 456.60,85.26 456.88,85.54 C457.18,85.85 456.91,86.86 456.28,87.80 C454.88,89.86 412.57,164.94 407.85,173.73 C406.01,177.16 404.05,179.96 403.50,179.95 C402.95,179.95 401.12,178.72 399.43,177.22 C397.75,175.72 389.48,169.10 381.06,162.50 C372.64,155.90 362.09,147.43 357.62,143.69 C353.16,139.95 348.78,136.58 347.87,136.19 C347.85,136.18 347.84,136.17 347.82,136.17 C345.64,134.95 320.98,100.84 321.58,99.86 C321.81,99.50 325.26,98.89 329.25,98.51 C331.49,98.29 340.08,97.40 351.67,96.17 L 351.68 96.17 C362.36,95.06 374.96,93.74 386.74,92.46 C416.88,89.21 434.40,87.33 444.42,86.26 Z" fill="#a8f0ff"/>
<path d="M 688.41 322.06 C683.22,320.82 683.00,320.39 683.00,311.80 L 683.00 303.72 L 688.89 304.33 C696.90,305.17 704.77,303.09 707.82,299.32 C709.10,297.75 711.69,292.96 713.57,288.69 L 717.00 280.92 L 703.37 247.71 C695.87,229.44 686.87,207.66 683.37,199.30 C679.87,190.94 677.00,183.85 677.00,183.55 C677.00,183.25 681.85,183.00 687.77,183.00 L 698.54 183.00 L 701.48 190.75 C709.53,211.97 726.86,254.50 727.46,254.50 C728.08,254.50 735.92,235.14 750.43,197.75 L 756.15 183.00 L 766.95 183.00 L 777.74 183.00 L 768.29 206.25 C730.95,298.15 729.57,301.46 725.88,307.60 C721.82,314.37 715.50,319.48 708.67,321.51 C703.43,323.06 693.72,323.33 688.41,322.06 ZM 1108.50 284.03 C1082.52,278.27 1065.97,258.15 1066.01,232.36 C1066.03,218.18 1070.82,206.31 1080.50,196.41 C1090.58,186.11 1103.34,181.00 1119.00,181.00 C1134.52,181.00 1145.28,185.27 1155.52,195.49 C1182.76,222.67 1172.43,269.47 1136.42,282.06 C1129.75,284.39 1114.88,285.44 1108.50,284.03 ZM 1132.50 263.28 C1138.35,260.24 1143.42,254.87 1146.65,248.29 C1149.21,243.10 1149.50,241.47 1149.50,232.50 C1149.50,223.57 1149.20,221.89 1146.70,216.80 C1137.79,198.66 1115.83,193.51 1098.81,205.56 C1093.57,209.27 1088.42,218.35 1086.90,226.58 C1084.07,241.88 1092.73,258.59 1106.26,263.94 C1113.27,266.71 1126.54,266.38 1132.50,263.28 ZM 550.00 214.07 L 550.00 145.00 L 579.75 145.02 C614.02,145.04 618.89,145.70 632.00,152.14 C648.71,160.34 660.17,175.15 665.13,194.94 C666.94,202.18 667.17,205.40 666.76,217.44 C666.33,230.06 665.97,232.36 663.17,239.86 C661.46,244.46 658.95,250.12 657.59,252.44 C650.74,264.13 636.86,274.95 622.63,279.70 C614.58,282.39 614.20,282.42 582.25,282.78 L 550.00 283.15 L 550.00 214.07 ZM 608.92 262.89 C618.43,261.29 626.74,257.03 632.72,250.70 C642.61,240.24 646.52,228.32 645.73,211.00 C644.67,187.58 633.96,171.82 615.14,165.98 C609.79,164.31 605.90,164.00 590.41,164.00 L 572.04 164.00 L 571.44 166.39 C571.11,167.70 571.08,186.49 571.38,208.14 C571.68,229.79 571.94,251.21 571.96,255.75 L 572.00 264.00 L 587.17 264.00 C595.51,264.00 605.30,263.50 608.92,262.89 ZM 791.00 233.00 L 791.00 183.00 L 800.50 183.00 L 810.00 183.00 L 810.00 188.00 C810.00,190.75 810.22,193.00 810.49,193.00 C810.76,193.00 813.12,191.36 815.74,189.35 C823.44,183.44 828.39,181.67 838.61,181.20 C850.35,180.65 857.13,182.53 864.14,188.28 C866.97,190.60 870.55,194.75 872.10,197.50 C877.54,207.20 878.00,211.19 878.00,248.71 L 878.00 283.00 L 868.06 283.00 L 858.12 283.00 L 857.81 249.75 C857.51,217.19 857.45,216.39 855.12,211.23 C851.03,202.18 843.83,198.23 833.38,199.30 C824.12,200.25 817.84,204.71 814.08,213.00 C812.17,217.22 812.04,219.46 812.02,248.67 C812.01,265.81 811.73,280.55 811.39,281.42 C810.90,282.71 808.99,283.00 800.89,283.00 L 791.00 283.00 L 791.00 233.00 ZM 900.00 233.00 L 900.00 183.00 L 909.45 183.00 L 918.90 183.00 L 919.20 188.20 L 919.50 193.39 L 923.00 190.33 C924.92,188.64 928.97,185.97 932.00,184.38 C937.13,181.69 938.27,181.50 949.00,181.50 C960.00,181.50 960.74,181.63 966.00,184.59 C969.17,186.37 972.97,189.63 974.96,192.29 L 978.42 196.89 L 982.96 192.40 C985.46,189.92 990.42,186.46 993.98,184.70 C1000.13,181.66 1001.03,181.50 1011.98,181.50 C1023.21,181.50 1023.66,181.59 1029.85,184.94 C1037.10,188.87 1041.77,194.32 1045.21,202.85 C1047.41,208.32 1047.49,209.69 1047.80,245.75 L 1048.11 283.00 L 1038.11 283.00 L 1028.12 283.00 L 1027.81 248.25 C1027.52,215.37 1027.39,213.29 1025.43,209.55 C1022.08,203.17 1016.98,199.70 1010.22,199.21 C999.38,198.43 991.43,202.54 986.69,211.41 C984.58,215.35 984.49,216.73 984.20,249.25 L 983.90 283.00 L 973.95 283.00 L 964.00 283.00 L 964.00 251.55 C964.00,232.89 963.56,218.06 962.92,215.09 C960.85,205.43 955.50,200.22 946.72,199.31 C936.21,198.23 927.36,202.66 922.72,211.35 C920.57,215.37 920.49,216.59 920.20,249.25 L 919.90 283.00 L 909.95 283.00 L 900.00 283.00 L 900.00 233.00 Z" fill="rgb(252,252,251)"/>
</g>
</svg>